HIERARCHY
ROOT hip
{
	OFFSET 0.000000 -13.901810 -0.736397
	CHANNELS 6 Xposition Yposition Zposition Zrotation Xrotation Yrotation
	JOINT abdomen
	{
		OFFSET 0.000000 13.901810 0.736397
		CHANNELS 3 Zrotation Xrotation Yrotation
		JOINT chest
		{
			OFFSET 0.000000 12.679672 -2.194560
			CHANNELS 3 Zrotation Xrotation Yrotation
			JOINT neck
			{
				OFFSET 0.000000 25.603203 -3.657600
				CHANNELS 3 Zrotation Xrotation Yrotation
				JOINT head
				{
					OFFSET 0.000000 8.046738 0.487680
					CHANNELS 3 Zrotation Xrotation Yrotation
					JOINT eyeBrow
					{
						OFFSET 0.000000 0.000000 0.000000
						CHANNELS 3 Zrotation Xrotation Yrotation
						End Site
						{
							OFFSET -3.285500 -9.559006 1.154119
						}
					}
					JOINT rEye
					{
						OFFSET -3.285256 8.567551 9.782740
						CHANNELS 3 Zrotation Xrotation Yrotation
						End Site
						{
							OFFSET 3.285500 -9.559006 1.154119
						}
					}
					JOINT lEye
					{
						OFFSET 3.285256 8.567551 9.782740
						CHANNELS 3 Zrotation Xrotation Yrotation
						End Site
						{
							OFFSET -0.009997 -15.081253 2.045429
						}
					}
					JOINT upperJaw
					{
						OFFSET -0.009997 3.050674 6.895308
						CHANNELS 3 Zrotation Xrotation Yrotation
						End Site
						{
							OFFSET 0.000000 -17.888092 -2.861608
						}
					}
					JOINT lowerJaw
					{
						OFFSET -0.011286 5.711960 3.551442
						CHANNELS 3 Zrotation Xrotation Yrotation
						JOINT tongueBase
						{
							OFFSET 0.011286 -5.468124 4.007598
							CHANNELS 3 Zrotation Xrotation Yrotation
							JOINT tongue01
							{
								OFFSET -0.009433 0.640335 0.227527
								CHANNELS 3 Zrotation Xrotation Yrotation
								JOINT tongue02
								{
									OFFSET -0.000210 0.715912 0.556443
									CHANNELS 3 Zrotation Xrotation Yrotation
									JOINT tongue03
									{
										OFFSET -0.000073 0.654694 0.675071
										CHANNELS 3 Zrotation Xrotation Yrotation
										JOINT tongue04
										{
											OFFSET -0.000043 0.543030 0.684240
											CHANNELS 3 Zrotation Xrotation Yrotation
											JOINT tongue05
											{
												OFFSET -0.000075 0.315277 0.359249
												CHANNELS 3 Zrotation Xrotation Yrotation
												JOINT tongueTip
												{
													OFFSET 0.000045 0.439911 0.529425
													CHANNELS 3 Zrotation Xrotation Yrotation
													End Site
													{
														OFFSET -14.874240 -3.901428 -0.487680
													}
												}
											}
										}
									}
								}
							}
						}
					}
				}
			}
			JOINT rCollar
			{
				OFFSET -3.169920 22.189461 -3.901440
				CHANNELS 3 Zrotation Xrotation Yrotation
				JOINT rShldr
				{
					OFFSET -11.704320 -0.487686 -0.243840
					CHANNELS 3 Zrotation Xrotation Yrotation
					JOINT rForeArm
					{
						OFFSET -29.748482 -2.438400 1.463040
						CHANNELS 3 Zrotation Xrotation Yrotation
						JOINT rHand
						{
							OFFSET -22.189442 -0.487671 12.435841
							CHANNELS 3 Zrotation Xrotation Yrotation
							JOINT rThumb1
							{
								OFFSET 0.487679 -0.243851 2.682240
								CHANNELS 3 Zrotation Xrotation Yrotation
								JOINT rThumb2
								{
									OFFSET -1.219193 -0.731537 3.901440
									CHANNELS 3 Zrotation Xrotation Yrotation
									JOINT rThumb3
									{
										OFFSET -2.099953 -0.994141 2.399971
										CHANNELS 3 Zrotation Xrotation Yrotation
										End Site
										{
											OFFSET 6.129883 -0.046326 -1.664919
										}
									}
								}
							}
							JOINT rIndex1
							{
								OFFSET -5.364479 0.975357 6.096000
								CHANNELS 3 Zrotation Xrotation Yrotation
								JOINT rIndex2
								{
									OFFSET -2.523994 -1.043396 2.682922
									CHANNELS 3 Zrotation Xrotation Yrotation
									JOINT rIndex3
									{
										OFFSET -1.190659 -1.543777 1.216082
										CHANNELS 3 Zrotation Xrotation Yrotation
										End Site
										{
											OFFSET 3.886322 -0.104126 -3.845263
										}
									}
								}
							}
							JOINT rMid1
							{
								OFFSET -6.339836 0.975357 4.145281
								CHANNELS 3 Zrotation Xrotation Yrotation
								JOINT rMid2
								{
									OFFSET -3.792198 -1.101196 2.453297
									CHANNELS 3 Zrotation Xrotation Yrotation
									JOINT rMid3
									{
										OFFSET -1.270653 -2.124588 1.194987
										CHANNELS 3 Zrotation Xrotation Yrotation
										End Site
										{
											OFFSET 3.789520 -1.188980 -6.481295
										}
									}
								}
							}
							JOINT rRing1
							{
								OFFSET -7.071358 -0.243851 2.682240
								CHANNELS 3 Zrotation Xrotation Yrotation
								JOINT rRing2
								{
									OFFSET -3.157478 -0.966843 1.280306
									CHANNELS 3 Zrotation Xrotation Yrotation
									JOINT rRing3
									{
										OFFSET -1.620323 -1.804672 1.094061
										CHANNELS 3 Zrotation Xrotation Yrotation
										End Site
										{
											OFFSET 4.264763 -2.660553 -8.736960
										}
									}
								}
							}
							JOINT rPinky1
							{
								OFFSET -7.071358 -0.975388 0.731520
								CHANNELS 3 Zrotation Xrotation Yrotation
								JOINT rPinky2
								{
									OFFSET -2.682236 -1.706879 0.975361
									CHANNELS 3 Zrotation Xrotation Yrotation
									JOINT rPinky3
									{
										OFFSET -0.768341 -1.582748 0.681190
										CHANNELS 3 Zrotation Xrotation Yrotation
										End Site
										{
											OFFSET 14.874240 -3.901428 -0.487680
										}
									}
								}
							}
						}
					}
				}
			}
			JOINT lCollar
			{
				OFFSET 3.169920 22.189461 -3.901440
				CHANNELS 3 Zrotation Xrotation Yrotation
				JOINT lShldr
				{
					OFFSET 11.704320 -0.487686 -0.243840
					CHANNELS 3 Zrotation Xrotation Yrotation
					JOINT lForeArm
					{
						OFFSET 29.748482 -2.438400 1.463040
						CHANNELS 3 Zrotation Xrotation Yrotation
						JOINT lHand
						{
							OFFSET 22.189442 -0.487671 12.435841
							CHANNELS 3 Zrotation Xrotation Yrotation
							JOINT lThumb1
							{
								OFFSET -0.487679 -0.243851 2.682240
								CHANNELS 3 Zrotation Xrotation Yrotation
								JOINT lThumb2
								{
									OFFSET 1.219193 -0.731537 3.901440
									CHANNELS 3 Zrotation Xrotation Yrotation
									JOINT lThumb3
									{
										OFFSET 2.099953 -0.994141 2.399971
										CHANNELS 3 Zrotation Xrotation Yrotation
										End Site
										{
											OFFSET -6.129883 -0.046326 -1.664919
										}
									}
								}
							}
							JOINT lIndex1
							{
								OFFSET 5.364479 0.975357 6.096000
								CHANNELS 3 Zrotation Xrotation Yrotation
								JOINT lIndex2
								{
									OFFSET 2.523994 -1.043396 2.682922
									CHANNELS 3 Zrotation Xrotation Yrotation
									JOINT lIndex3
									{
										OFFSET 1.190659 -1.543777 1.216082
										CHANNELS 3 Zrotation Xrotation Yrotation
										End Site
										{
											OFFSET -3.886322 -0.104126 -3.845263
										}
									}
								}
							}
							JOINT lMid1
							{
								OFFSET 6.339836 0.975357 4.145281
								CHANNELS 3 Zrotation Xrotation Yrotation
								JOINT lMid2
								{
									OFFSET 3.792198 -1.101196 2.453297
									CHANNELS 3 Zrotation Xrotation Yrotation
									JOINT lMid3
									{
										OFFSET 1.270653 -2.124588 1.194987
										CHANNELS 3 Zrotation Xrotation Yrotation
										End Site
										{
											OFFSET -3.789520 -1.188980 -6.481295
										}
									}
								}
							}
							JOINT lRing1
							{
								OFFSET 7.071358 -0.243851 2.682240
								CHANNELS 3 Zrotation Xrotation Yrotation
								JOINT lRing2
								{
									OFFSET 3.157478 -0.966843 1.280306
									CHANNELS 3 Zrotation Xrotation Yrotation
									JOINT lRing3
									{
										OFFSET 1.620323 -1.804672 1.094061
										CHANNELS 3 Zrotation Xrotation Yrotation
										End Site
										{
											OFFSET -4.264763 -2.660553 -8.736960
										}
									}
								}
							}
							JOINT lPinky1
							{
								OFFSET 7.071358 -0.975388 0.731520
								CHANNELS 3 Zrotation Xrotation Yrotation
								JOINT lPinky2
								{
									OFFSET 2.682236 -1.706879 0.975361
									CHANNELS 3 Zrotation Xrotation Yrotation
									JOINT lPinky3
									{
										OFFSET 0.768341 -1.582748 0.681190
										CHANNELS 3 Zrotation Xrotation Yrotation
										End Site
										{
											OFFSET -6.827520 -62.179199 -1.950720
										}
									}
								}
							}
						}
					}
				}
			}
		}
	}
	JOINT rThigh
	{
		OFFSET -9.022080 -2.435471 0.248717
		CHANNELS 3 Zrotation Xrotation Yrotation
		JOINT rShin
		{
			OFFSET 2.194561 -45.841919 -1.463040
			CHANNELS 3 Zrotation Xrotation Yrotation
			JOINT rFoot
			{
				OFFSET 0.975359 -42.428162 -3.657600
				CHANNELS 3 Zrotation Xrotation Yrotation
				JOINT rToe
				{
					OFFSET -1.950720 -11.216640 10.728961
					CHANNELS 3 Zrotation Xrotation Yrotation
					End Site
					{
						OFFSET 6.827520 -62.179199 -1.950720
					}
				}
			}
		}
	}
	JOINT lThigh
	{
		OFFSET 9.022080 -2.435471 0.248717
		CHANNELS 3 Zrotation Xrotation Yrotation
		JOINT lShin
		{
			OFFSET -2.194561 -45.841919 -1.463040
			CHANNELS 3 Zrotation Xrotation Yrotation
			JOINT lFoot
			{
				OFFSET -0.975359 -42.428162 -3.657600
				CHANNELS 3 Zrotation Xrotation Yrotation
				JOINT lToe
				{
					OFFSET 1.950720 -11.216640 10.728961
					CHANNELS 3 Zrotation Xrotation Yrotation
					End Site
					{
						OFFSET 2.304313 -3.592129 6.094805
					}
				}
			}
		}
	}
}
MOTION
Frames:	4
Frame Time:	0.0333333
-153.830399 0.000000 60.633499 0.000000 0.000000 0.000000 0.436024 -0.023837 0.012823 0.121302 -0.039602 0.021054 0.000000 0.000000 0.000000 0.000000 0.000000 0.000000 0.000000 0.000000 0.000000 0.000000 0.000000 0.000000 0.000000 0.000000 0.000000 0.000000 0.000000 0.000000 0.000000 0.000000 0.000000 0.000000 0.000000 0.000000 0.004202 18.999998 0.001473 0.001273 16.999998 0.000347 0.000292 6.000000 0.000088 -0.002360 -13.999998 -0.001126 0.000000 0.000000 0.000000 0.000000 0.000000 0.000000 10.067251 0.274752 10.454202 -11.158020 1.643275 -12.141078 0.731979 0.292395 -9.858291 2.207363 1.605992 1.092443 -4.136954 -2.017435 -16.166885 0.470301 1.006473 -0.869382 0.000000 0.000000 0.000000 -0.199600 1.377458 -3.793272 -20.610542 -13.848655 -6.660397 0.000000 0.000000 0.000000 -3.183709 -0.997526 -2.925639 -22.384190 -9.831594 -7.673540 0.000000 0.000000 0.000000 1.326077 3.874077 -10.519525 -25.267115 -3.987797 -10.509715 0.000000 0.000000 0.000000 -11.752882 9.480857 -22.738239 -27.543556 0.359745 -11.323718 0.000000 0.000000 0.000000 -10.067251 0.274752 -10.454202 11.158020 1.643275 12.141078 -0.731979 0.292395 9.858291 -2.207362 1.605992 -1.092439 4.136954 -2.017435 16.166885 -0.470301 1.006473 0.869382 0.000000 0.000000 0.000000 0.199600 1.377453 3.793260 20.610542 -13.848655 6.660397 0.000000 0.000000 0.000000 3.183710 -0.997526 2.925639 22.384190 -9.831594 7.673540 0.000000 0.000000 0.000000 -1.326076 3.874075 10.519519 25.267130 -3.987798 10.509722 0.000000 0.000000 0.000000 11.752882 9.480857 22.738239 27.543556 0.359745 11.323718 0.000000 0.000000 0.000000 -2.393114 -7.160778 -10.393021 -0.002240 7.510285 0.175688 -0.322643 1.723440 0.069312 0.000000 0.000000 0.000000 3.060558 -5.135193 10.238633 0.002276 3.891299 -0.048395 0.296597 3.370409 -0.096746 0.000000 0.000000 0.000000 
-151.290436 -1.947038 40.349590 5.450323 -4.548699 -170.549561 2.811300 -0.387047 2.257340 0.112096 -4.011969 0.560902 1.517950 1.024290 2.335459 -0.341883 5.393598 3.051409 0.000000 0.000000 0.000000 0.000000 0.000000 0.000000 0.000000 0.000000 0.000000 0.000000 0.000000 0.000000 0.000000 0.000000 0.000000 0.000000 0.000000 0.000000 0.004202 18.999998 0.001473 0.001273 16.999998 0.000347 0.000292 6.000000 0.000088 -0.002360 -13.999998 -0.001126 0.000000 0.000000 0.000000 0.000000 0.000000 0.000000 10.067251 0.274752 10.454202 6.751231 6.773066 -17.757940 2.775994 -4.675211 10.617148 0.856912 0.619758 0.535419 -4.136954 -2.017435 -16.166885 0.470301 1.006473 -0.869382 0.000000 0.000000 0.000000 -0.199600 1.377458 -3.793272 -20.610542 -13.848655 -6.660397 0.000000 0.000000 0.000000 -3.183709 -0.997526 -2.925639 -22.384190 -9.831594 -7.673540 0.000000 0.000000 0.000000 1.326077 3.874077 -10.519525 -25.267115 -3.987797 -10.509715 0.000000 0.000000 0.000000 -11.752882 9.480857 -22.738239 -27.543556 0.359745 -11.323718 0.000000 0.000000 0.000000 -10.067251 0.274752 -10.454202 -6.873004 0.001371 15.196474 -0.791848 14.563259 24.663317 3.027939 -2.173849 1.910072 4.136954 -2.017435 16.166885 -0.470301 1.006473 0.869382 0.000000 0.000000 0.000000 0.199600 1.377453 3.793260 20.610542 -13.848655 6.660397 0.000000 0.000000 0.000000 3.183710 -0.997526 2.925639 22.384190 -9.831594 7.673540 0.000000 0.000000 0.000000 -1.326076 3.874075 10.519519 25.267130 -3.987798 10.509722 0.000000 0.000000 0.000000 11.752882 9.480857 22.738239 27.543556 0.359745 11.323718 0.000000 0.000000 0.000000 3.512527 -8.534023 -4.765590 -0.009147 9.334945 0.184273 -1.014600 -9.040169 -7.996300 0.000000 0.000000 0.000000 6.331829 -11.029387 2.946610 -0.001283 8.906556 -0.278431 0.458203 0.787642 0.754233 0.000000 0.000000 0.000000 
-151.419724 -1.881417 40.463299 5.366982 -4.611320 -170.437531 5.351420 -0.756901 4.634969 0.179940 -8.209399 1.142190 3.057529 2.103590 4.820139 -1.348749 11.019598 6.398179 0.000000 0.000000 0.000000 0.000000 0.000000 0.000000 0.000000 0.000000 0.000000 0.000000 0.000000 0.000000 0.000000 0.000000 0.000000 0.000000 0.000000 0.000000 0.004202 18.999998 0.001473 0.001273 16.999998 0.000347 0.000292 6.000000 0.000088 -0.002360 -13.999998 -0.001126 0.000000 0.000000 0.000000 0.000000 0.000000 0.000000 10.067251 0.274752 10.454202 27.247730 11.859570 -23.043444 -21.327713 -3.002576 57.065201 -0.571854 -0.415923 -0.202879 -4.136954 -2.017435 -16.166885 0.470301 1.006473 -0.869382 0.000000 0.000000 0.000000 -0.199600 1.377458 -3.793272 -20.610542 -13.848655 -6.660397 0.000000 0.000000 0.000000 -3.183709 -0.997526 -2.925639 -22.384190 -9.831594 -7.673540 0.000000 0.000000 0.000000 1.326077 3.874077 -10.519525 -25.267115 -3.987797 -10.509715 0.000000 0.000000 0.000000 -11.752882 9.480857 -22.738239 -27.543556 0.359745 -11.323718 0.000000 0.000000 0.000000 -10.067251 0.274752 -10.454202 -26.199135 -1.536673 17.292469 -0.753681 15.029131 24.649321 8.097903 -5.702002 7.721715 4.136954 -2.017435 16.166885 -0.470301 1.006473 0.869382 0.000000 0.000000 0.000000 0.199600 1.377453 3.793260 20.610542 -13.848655 6.660397 0.000000 0.000000 0.000000 3.183710 -0.997526 2.925639 22.384190 -9.831594 7.673540 0.000000 0.000000 0.000000 -1.326076 3.874075 10.519519 25.267130 -3.987798 10.509722 0.000000 0.000000 0.000000 11.752882 9.480857 22.738239 27.543556 0.359745 11.323718 0.000000 0.000000 0.000000 10.009131 -9.878254 1.172793 -0.018784 11.284615 0.185603 -4.496581 -19.954725 -10.915021 0.000000 0.000000 0.000000 8.119925 -16.848183 -5.163287 0.013633 14.233546 -0.434604 0.710795 -1.943990 1.629880 0.000000 0.000000 0.000000 
-151.528473 -1.809407 40.584496 5.323612 -4.740380 -170.355392 7.646997 -1.106650 6.747499 0.322497 -11.952298 1.672750 4.303720 3.052429 7.015269 -2.799748 15.993597 9.483968 0.000000 0.000000 0.000000 0.000000 0.000000 0.000000 0.000000 0.000000 0.000000 0.000000 0.000000 0.000000 0.000000 0.000000 0.000000 0.000000 0.000000 0.000000 0.004202 18.999998 0.001473 0.001273 16.999998 0.000347 0.000292 6.000000 0.000088 -0.002360 -13.999998 -0.001126 0.000000 0.000000 0.000000 0.000000 0.000000 0.000000 10.067251 0.274752 10.454202 45.959343 16.185760 -25.296795 -36.160164 -26.528433 84.944176 -1.834537 -1.323897 -0.983910 -4.136954 -2.017435 -16.166885 0.470301 1.006473 -0.869382 0.000000 0.000000 0.000000 -0.199600 1.377458 -3.793272 -20.610542 -13.848655 -6.660397 0.000000 0.000000 0.000000 -3.183709 -0.997526 -2.925639 -22.384190 -9.831594 -7.673540 0.000000 0.000000 0.000000 1.326077 3.874077 -10.519525 -25.267115 -3.987797 -10.509715 0.000000 0.000000 0.000000 -11.752882 9.480857 -22.738239 -27.543556 0.359745 -11.323718 0.000000 0.000000 0.000000 -10.067251 0.274752 -10.454202 -43.444420 -2.636855 18.312412 -0.527239 17.741213 24.560692 11.885164 -8.268802 14.732842 4.136954 -2.017435 16.166885 -0.470301 1.006473 0.869382 0.000000 0.000000 0.000000 0.199600 1.377453 3.793260 20.610542 -13.848655 6.660397 0.000000 0.000000 0.000000 3.183710 -0.997526 2.925639 22.384190 -9.831594 7.673540 0.000000 0.000000 0.000000 -1.326076 3.874075 10.519519 25.267130 -3.987798 10.509722 0.000000 0.000000 0.000000 11.752882 9.480857 22.738239 27.543556 0.359745 11.323718 0.000000 0.000000 0.000000 15.406572 -10.965798 6.517642 -0.029849 12.985802 0.172714 -10.726579 -28.463251 -13.537733 0.000000 0.000000 0.000000 8.269250 -21.401028 -12.922491 0.043907 18.933416 -0.500001 1.011830 -4.373670 2.462819 0.000000 0.000000 0.000000 
